<mxfile host="app.diagrams.net" modified="2024-06-03T19:52:00.297Z" agent="Mozilla/5.0 (X11; Linux x86_64) AppleWebKit/537.36 (KHTML, like Gecko) Chrome/125.0.0.0 Safari/537.36" etag="9QN4qs1k3WyyJlMOYyxj" version="24.4.4" type="device">
  <diagram id="C5RBs43oDa-KdzZeNtuy" name="Page-1">
    <mxGraphModel dx="3903" dy="1676" grid="1" gridSize="10" guides="1" tooltips="1" connect="1" arrows="1" fold="1" page="1" pageScale="1" pageWidth="827" pageHeight="1169" math="0" shadow="0">
      <root>
        <mxCell id="WIyWlLk6GJQsqaUBKTNV-0" />
        <mxCell id="WIyWlLk6GJQsqaUBKTNV-1" parent="WIyWlLk6GJQsqaUBKTNV-0" />
        <mxCell id="zkfFHV4jXpPFQw0GAbJ--0" value="Processor" style="swimlane;fontStyle=2;align=center;verticalAlign=top;childLayout=stackLayout;horizontal=1;startSize=26;horizontalStack=0;resizeParent=1;resizeLast=0;collapsible=1;marginBottom=0;rounded=0;shadow=0;strokeWidth=1;" parent="WIyWlLk6GJQsqaUBKTNV-1" vertex="1">
          <mxGeometry x="439" y="110" width="520" height="112" as="geometry">
            <mxRectangle x="230" y="140" width="160" height="26" as="alternateBounds" />
          </mxGeometry>
        </mxCell>
        <mxCell id="zkfFHV4jXpPFQw0GAbJ--1" value="- mode: Mode" style="text;align=left;verticalAlign=top;spacingLeft=4;spacingRight=4;overflow=hidden;rotatable=0;points=[[0,0.5],[1,0.5]];portConstraint=eastwest;" parent="zkfFHV4jXpPFQw0GAbJ--0" vertex="1">
          <mxGeometry y="26" width="520" height="26" as="geometry" />
        </mxCell>
        <mxCell id="zkfFHV4jXpPFQw0GAbJ--4" value="" style="line;html=1;strokeWidth=1;align=left;verticalAlign=middle;spacingTop=-1;spacingLeft=3;spacingRight=3;rotatable=0;labelPosition=right;points=[];portConstraint=eastwest;" parent="zkfFHV4jXpPFQw0GAbJ--0" vertex="1">
          <mxGeometry y="52" width="520" height="8" as="geometry" />
        </mxCell>
        <mxCell id="zkfFHV4jXpPFQw0GAbJ--5" value="+ configure(modelIdentifier : ModelIdentifier, databaseIdentifier: DatabaseIdentifier) : void" style="text;align=left;verticalAlign=top;spacingLeft=4;spacingRight=4;overflow=hidden;rotatable=0;points=[[0,0.5],[1,0.5]];portConstraint=eastwest;" parent="zkfFHV4jXpPFQw0GAbJ--0" vertex="1">
          <mxGeometry y="60" width="520" height="26" as="geometry" />
        </mxCell>
        <mxCell id="YCwrC-N_phqALDcuCg4B-2" value="+ process(data : DataPoint) : void" style="text;align=left;verticalAlign=top;spacingLeft=4;spacingRight=4;overflow=hidden;rotatable=0;points=[[0,0.5],[1,0.5]];portConstraint=eastwest;" parent="zkfFHV4jXpPFQw0GAbJ--0" vertex="1">
          <mxGeometry y="86" width="520" height="26" as="geometry" />
        </mxCell>
        <mxCell id="EOh2uzyRpF59aKmwDqAF-11" style="edgeStyle=orthogonalEdgeStyle;rounded=0;orthogonalLoop=1;jettySize=auto;html=1;entryX=0;entryY=0.25;entryDx=0;entryDy=0;endArrow=open;endFill=0;" edge="1" parent="WIyWlLk6GJQsqaUBKTNV-1" source="YCwrC-N_phqALDcuCg4B-3" target="EOh2uzyRpF59aKmwDqAF-6">
          <mxGeometry relative="1" as="geometry">
            <Array as="points">
              <mxPoint x="89" y="346" />
            </Array>
          </mxGeometry>
        </mxCell>
        <mxCell id="YCwrC-N_phqALDcuCg4B-3" value="ModeFactory" style="swimlane;fontStyle=2;align=center;verticalAlign=top;childLayout=stackLayout;horizontal=1;startSize=26;horizontalStack=0;resizeParent=1;resizeLast=0;collapsible=1;marginBottom=0;rounded=0;shadow=0;strokeWidth=1;" parent="WIyWlLk6GJQsqaUBKTNV-1" vertex="1">
          <mxGeometry x="-341" y="651" width="510" height="112" as="geometry">
            <mxRectangle x="230" y="140" width="160" height="26" as="alternateBounds" />
          </mxGeometry>
        </mxCell>
        <mxCell id="YCwrC-N_phqALDcuCg4B-5" value="" style="line;html=1;strokeWidth=1;align=left;verticalAlign=middle;spacingTop=-1;spacingLeft=3;spacingRight=3;rotatable=0;labelPosition=right;points=[];portConstraint=eastwest;" parent="YCwrC-N_phqALDcuCg4B-3" vertex="1">
          <mxGeometry y="26" width="510" height="8" as="geometry" />
        </mxCell>
        <mxCell id="YCwrC-N_phqALDcuCg4B-6" value="+ static create(modelIdentifier : ModelIdentifier, databaseIdentifier: DatabaseIdentifier) : Mode" style="text;align=left;verticalAlign=top;spacingLeft=4;spacingRight=4;overflow=hidden;rotatable=0;points=[[0,0.5],[1,0.5]];portConstraint=eastwest;" parent="YCwrC-N_phqALDcuCg4B-3" vertex="1">
          <mxGeometry y="34" width="510" height="26" as="geometry" />
        </mxCell>
        <mxCell id="YCwrC-N_phqALDcuCg4B-23" style="edgeStyle=orthogonalEdgeStyle;rounded=0;orthogonalLoop=1;jettySize=auto;html=1;endArrow=diamondThin;endFill=1;" parent="WIyWlLk6GJQsqaUBKTNV-1" source="YCwrC-N_phqALDcuCg4B-9" target="YCwrC-N_phqALDcuCg4B-2" edge="1">
          <mxGeometry relative="1" as="geometry">
            <Array as="points">
              <mxPoint x="704" y="280" />
              <mxPoint x="704" y="280" />
            </Array>
          </mxGeometry>
        </mxCell>
        <mxCell id="YCwrC-N_phqALDcuCg4B-60" style="edgeStyle=orthogonalEdgeStyle;rounded=0;orthogonalLoop=1;jettySize=auto;html=1;endArrow=open;endFill=0;" parent="WIyWlLk6GJQsqaUBKTNV-1" source="zkfFHV4jXpPFQw0GAbJ--1" target="YCwrC-N_phqALDcuCg4B-3" edge="1">
          <mxGeometry relative="1" as="geometry" />
        </mxCell>
        <mxCell id="YCwrC-N_phqALDcuCg4B-99" style="edgeStyle=orthogonalEdgeStyle;rounded=0;orthogonalLoop=1;jettySize=auto;html=1;entryX=0.5;entryY=1;entryDx=0;entryDy=0;endArrow=diamondThin;endFill=1;" parent="WIyWlLk6GJQsqaUBKTNV-1" source="YCwrC-N_phqALDcuCg4B-82" target="YCwrC-N_phqALDcuCg4B-15" edge="1">
          <mxGeometry relative="1" as="geometry" />
        </mxCell>
        <mxCell id="YCwrC-N_phqALDcuCg4B-100" style="edgeStyle=orthogonalEdgeStyle;rounded=0;orthogonalLoop=1;jettySize=auto;html=1;entryX=0.5;entryY=1;entryDx=0;entryDy=0;endArrow=diamondThin;endFill=1;" parent="WIyWlLk6GJQsqaUBKTNV-1" source="YCwrC-N_phqALDcuCg4B-82" target="YCwrC-N_phqALDcuCg4B-19" edge="1">
          <mxGeometry relative="1" as="geometry" />
        </mxCell>
        <mxCell id="YCwrC-N_phqALDcuCg4B-24" style="edgeStyle=orthogonalEdgeStyle;rounded=0;orthogonalLoop=1;jettySize=auto;html=1;exitX=0.5;exitY=1;exitDx=0;exitDy=0;endArrow=none;endFill=0;dashed=1;" parent="WIyWlLk6GJQsqaUBKTNV-1" source="YCwrC-N_phqALDcuCg4B-9" target="YCwrC-N_phqALDcuCg4B-12" edge="1">
          <mxGeometry relative="1" as="geometry" />
        </mxCell>
        <mxCell id="YCwrC-N_phqALDcuCg4B-26" style="edgeStyle=orthogonalEdgeStyle;rounded=0;orthogonalLoop=1;jettySize=auto;html=1;exitX=0.5;exitY=1;exitDx=0;exitDy=0;endArrow=none;endFill=0;dashed=1;" parent="WIyWlLk6GJQsqaUBKTNV-1" source="YCwrC-N_phqALDcuCg4B-9" target="YCwrC-N_phqALDcuCg4B-19" edge="1">
          <mxGeometry relative="1" as="geometry" />
        </mxCell>
        <mxCell id="YCwrC-N_phqALDcuCg4B-9" value="Mode" style="swimlane;fontStyle=2;align=center;verticalAlign=top;childLayout=stackLayout;horizontal=1;startSize=26;horizontalStack=0;resizeParent=1;resizeLast=0;collapsible=1;marginBottom=0;rounded=0;shadow=0;strokeWidth=1;" parent="WIyWlLk6GJQsqaUBKTNV-1" vertex="1">
          <mxGeometry x="604" y="290" width="200" height="112" as="geometry">
            <mxRectangle x="230" y="140" width="160" height="26" as="alternateBounds" />
          </mxGeometry>
        </mxCell>
        <mxCell id="YCwrC-N_phqALDcuCg4B-10" value="" style="line;html=1;strokeWidth=1;align=left;verticalAlign=middle;spacingTop=-1;spacingLeft=3;spacingRight=3;rotatable=0;labelPosition=right;points=[];portConstraint=eastwest;" parent="YCwrC-N_phqALDcuCg4B-9" vertex="1">
          <mxGeometry y="26" width="200" height="8" as="geometry" />
        </mxCell>
        <mxCell id="YCwrC-N_phqALDcuCg4B-11" value="+ process(data : DataPoint) : void" style="text;align=left;verticalAlign=top;spacingLeft=4;spacingRight=4;overflow=hidden;rotatable=0;points=[[0,0.5],[1,0.5]];portConstraint=eastwest;" parent="YCwrC-N_phqALDcuCg4B-9" vertex="1">
          <mxGeometry y="34" width="200" height="26" as="geometry" />
        </mxCell>
        <mxCell id="YCwrC-N_phqALDcuCg4B-12" value="DumpMode" style="swimlane;fontStyle=2;align=center;verticalAlign=top;childLayout=stackLayout;horizontal=1;startSize=26;horizontalStack=0;resizeParent=1;resizeLast=0;collapsible=1;marginBottom=0;rounded=0;shadow=0;strokeWidth=1;" parent="WIyWlLk6GJQsqaUBKTNV-1" vertex="1">
          <mxGeometry x="330" y="450" width="200" height="112" as="geometry">
            <mxRectangle x="230" y="140" width="160" height="26" as="alternateBounds" />
          </mxGeometry>
        </mxCell>
        <mxCell id="YCwrC-N_phqALDcuCg4B-13" value="" style="line;html=1;strokeWidth=1;align=left;verticalAlign=middle;spacingTop=-1;spacingLeft=3;spacingRight=3;rotatable=0;labelPosition=right;points=[];portConstraint=eastwest;" parent="YCwrC-N_phqALDcuCg4B-12" vertex="1">
          <mxGeometry y="26" width="200" height="8" as="geometry" />
        </mxCell>
        <mxCell id="YCwrC-N_phqALDcuCg4B-14" value="+ process(data : DataPoint) : void" style="text;align=left;verticalAlign=top;spacingLeft=4;spacingRight=4;overflow=hidden;rotatable=0;points=[[0,0.5],[1,0.5]];portConstraint=eastwest;" parent="YCwrC-N_phqALDcuCg4B-12" vertex="1">
          <mxGeometry y="34" width="200" height="26" as="geometry" />
        </mxCell>
        <mxCell id="YCwrC-N_phqALDcuCg4B-15" value="PassthroughMode" style="swimlane;fontStyle=2;align=center;verticalAlign=top;childLayout=stackLayout;horizontal=1;startSize=26;horizontalStack=0;resizeParent=1;resizeLast=0;collapsible=1;marginBottom=0;rounded=0;shadow=0;strokeWidth=1;" parent="WIyWlLk6GJQsqaUBKTNV-1" vertex="1">
          <mxGeometry x="584" y="450" width="240" height="112" as="geometry">
            <mxRectangle x="230" y="140" width="160" height="26" as="alternateBounds" />
          </mxGeometry>
        </mxCell>
        <mxCell id="YCwrC-N_phqALDcuCg4B-16" value="" style="line;html=1;strokeWidth=1;align=left;verticalAlign=middle;spacingTop=-1;spacingLeft=3;spacingRight=3;rotatable=0;labelPosition=right;points=[];portConstraint=eastwest;" parent="YCwrC-N_phqALDcuCg4B-15" vertex="1">
          <mxGeometry y="26" width="240" height="8" as="geometry" />
        </mxCell>
        <mxCell id="YCwrC-N_phqALDcuCg4B-17" value="- databaseConnector : DatabaseConnector" style="text;align=left;verticalAlign=top;spacingLeft=4;spacingRight=4;overflow=hidden;rotatable=0;points=[[0,0.5],[1,0.5]];portConstraint=eastwest;" parent="YCwrC-N_phqALDcuCg4B-15" vertex="1">
          <mxGeometry y="34" width="240" height="26" as="geometry" />
        </mxCell>
        <mxCell id="YCwrC-N_phqALDcuCg4B-18" value="+ process(data : DataPoint) : void" style="text;align=left;verticalAlign=top;spacingLeft=4;spacingRight=4;overflow=hidden;rotatable=0;points=[[0,0.5],[1,0.5]];portConstraint=eastwest;" parent="YCwrC-N_phqALDcuCg4B-15" vertex="1">
          <mxGeometry y="60" width="240" height="26" as="geometry" />
        </mxCell>
        <mxCell id="YCwrC-N_phqALDcuCg4B-19" value="ValidateMode" style="swimlane;fontStyle=2;align=center;verticalAlign=top;childLayout=stackLayout;horizontal=1;startSize=26;horizontalStack=0;resizeParent=1;resizeLast=0;collapsible=1;marginBottom=0;rounded=0;shadow=0;strokeWidth=1;" parent="WIyWlLk6GJQsqaUBKTNV-1" vertex="1">
          <mxGeometry x="890" y="450" width="240" height="112" as="geometry">
            <mxRectangle x="230" y="140" width="160" height="26" as="alternateBounds" />
          </mxGeometry>
        </mxCell>
        <mxCell id="YCwrC-N_phqALDcuCg4B-20" value="" style="line;html=1;strokeWidth=1;align=left;verticalAlign=middle;spacingTop=-1;spacingLeft=3;spacingRight=3;rotatable=0;labelPosition=right;points=[];portConstraint=eastwest;" parent="YCwrC-N_phqALDcuCg4B-19" vertex="1">
          <mxGeometry y="26" width="240" height="8" as="geometry" />
        </mxCell>
        <mxCell id="YCwrC-N_phqALDcuCg4B-21" value="- databaseConnector : DatabaseConnector" style="text;align=left;verticalAlign=top;spacingLeft=4;spacingRight=4;overflow=hidden;rotatable=0;points=[[0,0.5],[1,0.5]];portConstraint=eastwest;" parent="YCwrC-N_phqALDcuCg4B-19" vertex="1">
          <mxGeometry y="34" width="240" height="26" as="geometry" />
        </mxCell>
        <mxCell id="YCwrC-N_phqALDcuCg4B-22" value="+ process(data : DataPoint) : void" style="text;align=left;verticalAlign=top;spacingLeft=4;spacingRight=4;overflow=hidden;rotatable=0;points=[[0,0.5],[1,0.5]];portConstraint=eastwest;" parent="YCwrC-N_phqALDcuCg4B-19" vertex="1">
          <mxGeometry y="60" width="240" height="26" as="geometry" />
        </mxCell>
        <mxCell id="YCwrC-N_phqALDcuCg4B-25" style="edgeStyle=orthogonalEdgeStyle;rounded=0;orthogonalLoop=1;jettySize=auto;html=1;entryX=0.5;entryY=0;entryDx=0;entryDy=0;startArrow=block;startFill=0;endArrow=none;endFill=0;" parent="WIyWlLk6GJQsqaUBKTNV-1" source="YCwrC-N_phqALDcuCg4B-9" target="YCwrC-N_phqALDcuCg4B-15" edge="1">
          <mxGeometry relative="1" as="geometry" />
        </mxCell>
        <mxCell id="EOh2uzyRpF59aKmwDqAF-6" value="" style="rounded=0;whiteSpace=wrap;html=1;fillColor=none;dashed=1;" vertex="1" parent="WIyWlLk6GJQsqaUBKTNV-1">
          <mxGeometry x="289" y="261" width="880" height="340" as="geometry" />
        </mxCell>
        <mxCell id="EOh2uzyRpF59aKmwDqAF-8" value="" style="group" vertex="1" connectable="0" parent="WIyWlLk6GJQsqaUBKTNV-1">
          <mxGeometry x="349" y="691" width="820" height="320" as="geometry" />
        </mxCell>
        <mxCell id="YCwrC-N_phqALDcuCg4B-80" style="edgeStyle=orthogonalEdgeStyle;rounded=0;orthogonalLoop=1;jettySize=auto;html=1;exitX=0.5;exitY=1;exitDx=0;exitDy=0;endArrow=none;endFill=0;dashed=1;" parent="EOh2uzyRpF59aKmwDqAF-8" source="YCwrC-N_phqALDcuCg4B-82" target="YCwrC-N_phqALDcuCg4B-95" edge="1">
          <mxGeometry relative="1" as="geometry">
            <mxPoint x="89.04347826086973" y="159" as="targetPoint" />
            <Array as="points">
              <mxPoint x="355" y="135" />
              <mxPoint x="100" y="135" />
            </Array>
          </mxGeometry>
        </mxCell>
        <mxCell id="YCwrC-N_phqALDcuCg4B-101" style="edgeStyle=orthogonalEdgeStyle;rounded=0;orthogonalLoop=1;jettySize=auto;html=1;dashed=1;endArrow=none;endFill=0;" parent="EOh2uzyRpF59aKmwDqAF-8" source="YCwrC-N_phqALDcuCg4B-82" target="YCwrC-N_phqALDcuCg4B-87" edge="1">
          <mxGeometry relative="1" as="geometry">
            <Array as="points">
              <mxPoint x="355" y="135" />
              <mxPoint x="610" y="135" />
            </Array>
          </mxGeometry>
        </mxCell>
        <mxCell id="YCwrC-N_phqALDcuCg4B-82" value="DatabaseConnector" style="swimlane;fontStyle=2;align=center;verticalAlign=top;childLayout=stackLayout;horizontal=1;startSize=26;horizontalStack=0;resizeParent=1;resizeLast=0;collapsible=1;marginBottom=0;rounded=0;shadow=0;strokeWidth=1;" parent="EOh2uzyRpF59aKmwDqAF-8" vertex="1">
          <mxGeometry x="255" width="200" height="112" as="geometry">
            <mxRectangle x="230" y="140" width="160" height="26" as="alternateBounds" />
          </mxGeometry>
        </mxCell>
        <mxCell id="YCwrC-N_phqALDcuCg4B-83" value="" style="line;html=1;strokeWidth=1;align=left;verticalAlign=middle;spacingTop=-1;spacingLeft=3;spacingRight=3;rotatable=0;labelPosition=right;points=[];portConstraint=eastwest;" parent="YCwrC-N_phqALDcuCg4B-82" vertex="1">
          <mxGeometry y="26" width="200" height="8" as="geometry" />
        </mxCell>
        <mxCell id="YCwrC-N_phqALDcuCg4B-84" value="+ insert(data : DataPoint) : void" style="text;align=left;verticalAlign=top;spacingLeft=4;spacingRight=4;overflow=hidden;rotatable=0;points=[[0,0.5],[1,0.5]];portConstraint=eastwest;" parent="YCwrC-N_phqALDcuCg4B-82" vertex="1">
          <mxGeometry y="34" width="200" height="26" as="geometry" />
        </mxCell>
        <mxCell id="YCwrC-N_phqALDcuCg4B-85" value="+ validate(data : DataPoint) : void" style="text;align=left;verticalAlign=top;spacingLeft=4;spacingRight=4;overflow=hidden;rotatable=0;points=[[0,0.5],[1,0.5]];portConstraint=eastwest;" parent="YCwrC-N_phqALDcuCg4B-82" vertex="1">
          <mxGeometry y="60" width="200" height="26" as="geometry" />
        </mxCell>
        <mxCell id="YCwrC-N_phqALDcuCg4B-86" style="edgeStyle=orthogonalEdgeStyle;rounded=0;orthogonalLoop=1;jettySize=auto;html=1;entryX=0.5;entryY=0;entryDx=0;entryDy=0;startArrow=block;startFill=0;endArrow=none;endFill=0;dashed=1;" parent="EOh2uzyRpF59aKmwDqAF-8" source="YCwrC-N_phqALDcuCg4B-82" target="YCwrC-N_phqALDcuCg4B-91" edge="1">
          <mxGeometry relative="1" as="geometry">
            <mxPoint x="363" y="159" as="targetPoint" />
          </mxGeometry>
        </mxCell>
        <mxCell id="YCwrC-N_phqALDcuCg4B-87" value="ElasticConnector" style="swimlane;fontStyle=2;align=center;verticalAlign=top;childLayout=stackLayout;horizontal=1;startSize=26;horizontalStack=0;resizeParent=1;resizeLast=0;collapsible=1;marginBottom=0;rounded=0;shadow=0;strokeWidth=1;" parent="EOh2uzyRpF59aKmwDqAF-8" vertex="1">
          <mxGeometry x="510" y="169" width="200" height="112" as="geometry">
            <mxRectangle x="230" y="140" width="160" height="26" as="alternateBounds" />
          </mxGeometry>
        </mxCell>
        <mxCell id="YCwrC-N_phqALDcuCg4B-88" value="" style="line;html=1;strokeWidth=1;align=left;verticalAlign=middle;spacingTop=-1;spacingLeft=3;spacingRight=3;rotatable=0;labelPosition=right;points=[];portConstraint=eastwest;" parent="YCwrC-N_phqALDcuCg4B-87" vertex="1">
          <mxGeometry y="26" width="200" height="8" as="geometry" />
        </mxCell>
        <mxCell id="YCwrC-N_phqALDcuCg4B-89" value="+ insert(data : DataPoint) : void" style="text;align=left;verticalAlign=top;spacingLeft=4;spacingRight=4;overflow=hidden;rotatable=0;points=[[0,0.5],[1,0.5]];portConstraint=eastwest;" parent="YCwrC-N_phqALDcuCg4B-87" vertex="1">
          <mxGeometry y="34" width="200" height="26" as="geometry" />
        </mxCell>
        <mxCell id="YCwrC-N_phqALDcuCg4B-90" value="+ validate(data : DataPoint) : void" style="text;align=left;verticalAlign=top;spacingLeft=4;spacingRight=4;overflow=hidden;rotatable=0;points=[[0,0.5],[1,0.5]];portConstraint=eastwest;" parent="YCwrC-N_phqALDcuCg4B-87" vertex="1">
          <mxGeometry y="60" width="200" height="26" as="geometry" />
        </mxCell>
        <mxCell id="YCwrC-N_phqALDcuCg4B-91" value="RedisConnector" style="swimlane;fontStyle=2;align=center;verticalAlign=top;childLayout=stackLayout;horizontal=1;startSize=26;horizontalStack=0;resizeParent=1;resizeLast=0;collapsible=1;marginBottom=0;rounded=0;shadow=0;strokeWidth=1;" parent="EOh2uzyRpF59aKmwDqAF-8" vertex="1">
          <mxGeometry x="255" y="169" width="200" height="112" as="geometry">
            <mxRectangle x="230" y="140" width="160" height="26" as="alternateBounds" />
          </mxGeometry>
        </mxCell>
        <mxCell id="YCwrC-N_phqALDcuCg4B-92" value="" style="line;html=1;strokeWidth=1;align=left;verticalAlign=middle;spacingTop=-1;spacingLeft=3;spacingRight=3;rotatable=0;labelPosition=right;points=[];portConstraint=eastwest;" parent="YCwrC-N_phqALDcuCg4B-91" vertex="1">
          <mxGeometry y="26" width="200" height="8" as="geometry" />
        </mxCell>
        <mxCell id="YCwrC-N_phqALDcuCg4B-93" value="+ insert(data : DataPoint) : void" style="text;align=left;verticalAlign=top;spacingLeft=4;spacingRight=4;overflow=hidden;rotatable=0;points=[[0,0.5],[1,0.5]];portConstraint=eastwest;" parent="YCwrC-N_phqALDcuCg4B-91" vertex="1">
          <mxGeometry y="34" width="200" height="26" as="geometry" />
        </mxCell>
        <mxCell id="YCwrC-N_phqALDcuCg4B-94" value="+ validate(data : DataPoint) : void" style="text;align=left;verticalAlign=top;spacingLeft=4;spacingRight=4;overflow=hidden;rotatable=0;points=[[0,0.5],[1,0.5]];portConstraint=eastwest;" parent="YCwrC-N_phqALDcuCg4B-91" vertex="1">
          <mxGeometry y="60" width="200" height="26" as="geometry" />
        </mxCell>
        <mxCell id="YCwrC-N_phqALDcuCg4B-95" value="PostgreConnector" style="swimlane;fontStyle=2;align=center;verticalAlign=top;childLayout=stackLayout;horizontal=1;startSize=26;horizontalStack=0;resizeParent=1;resizeLast=0;collapsible=1;marginBottom=0;rounded=0;shadow=0;strokeWidth=1;" parent="EOh2uzyRpF59aKmwDqAF-8" vertex="1">
          <mxGeometry y="169" width="200" height="112" as="geometry">
            <mxRectangle x="230" y="140" width="160" height="26" as="alternateBounds" />
          </mxGeometry>
        </mxCell>
        <mxCell id="YCwrC-N_phqALDcuCg4B-96" value="" style="line;html=1;strokeWidth=1;align=left;verticalAlign=middle;spacingTop=-1;spacingLeft=3;spacingRight=3;rotatable=0;labelPosition=right;points=[];portConstraint=eastwest;" parent="YCwrC-N_phqALDcuCg4B-95" vertex="1">
          <mxGeometry y="26" width="200" height="8" as="geometry" />
        </mxCell>
        <mxCell id="YCwrC-N_phqALDcuCg4B-97" value="+ insert(data : DataPoint) : void" style="text;align=left;verticalAlign=top;spacingLeft=4;spacingRight=4;overflow=hidden;rotatable=0;points=[[0,0.5],[1,0.5]];portConstraint=eastwest;" parent="YCwrC-N_phqALDcuCg4B-95" vertex="1">
          <mxGeometry y="34" width="200" height="26" as="geometry" />
        </mxCell>
        <mxCell id="YCwrC-N_phqALDcuCg4B-98" value="+ validate(data : DataPoint) : void" style="text;align=left;verticalAlign=top;spacingLeft=4;spacingRight=4;overflow=hidden;rotatable=0;points=[[0,0.5],[1,0.5]];portConstraint=eastwest;" parent="YCwrC-N_phqALDcuCg4B-95" vertex="1">
          <mxGeometry y="60" width="200" height="26" as="geometry" />
        </mxCell>
        <mxCell id="EOh2uzyRpF59aKmwDqAF-7" value="" style="rounded=0;whiteSpace=wrap;html=1;fillColor=none;dashed=1;" vertex="1" parent="EOh2uzyRpF59aKmwDqAF-8">
          <mxGeometry x="-60" y="-40" width="880" height="360" as="geometry" />
        </mxCell>
        <mxCell id="EOh2uzyRpF59aKmwDqAF-10" style="edgeStyle=orthogonalEdgeStyle;rounded=0;orthogonalLoop=1;jettySize=auto;html=1;entryX=-0.003;entryY=0.132;entryDx=0;entryDy=0;entryPerimeter=0;endArrow=open;endFill=0;" edge="1" parent="WIyWlLk6GJQsqaUBKTNV-1" source="YCwrC-N_phqALDcuCg4B-6" target="EOh2uzyRpF59aKmwDqAF-7">
          <mxGeometry relative="1" as="geometry" />
        </mxCell>
      </root>
    </mxGraphModel>
  </diagram>
</mxfile>
